<svg t="1687874594571" class="icon" viewBox="0 0 1024 1024" version="1.1" xmlns="http://www.w3.org/2000/svg" p-id="12648" width="200" height="200"><path d="M924.191195 799.034439c49.229904-76.407851 77.803848-167.379673 77.803848-265.029482 0-270.617471-219.377572-489.997043-489.995043-489.997043S22.002957 263.385486 22.002957 534.004957c0 97.713809 28.611944 188.737631 77.899848 265.175482z" fill="#746BF9" p-id="12649"></path><path d="M466.876088 77.05585c14.215972 4.649991 29.375943 7.197986 45.125912 7.197985s30.90794-2.547995 45.125912-7.197985l39.153923 86.83383a42.957916 42.957916 0 0 1 6.349988 22.477956v3.673993c-0.269999-0.004-0.533999-0.04-0.803998-0.04-15.649969 0-29.427943 7.939984-37.557927 20.007961-1.651997 2.451995-4.279992 3.699993-6.951987 3.817992-2.941994 0.13-5.939988-1.117998-7.757984-3.817992-17.953965-26.651948-57.137888-26.683948-75.113854 0-1.817996 2.699995-4.813991 3.947992-7.757985 3.817992-2.671995-0.118-5.30199-1.365997-6.951986-3.817992C451.604118 197.941613 437.826145 190.001629 422.176175 190.001629c-0.271999 0-0.533999 0.036-0.803998 0.04v-3.673993c0-7.935985 2.197996-15.715969 6.349988-22.477956z" fill="#FCF9EB" p-id="12650"></path><path d="M512 186.763635c-22.611956-7.523985-14.387972-32.975936-14.387972-32.975935s5.525989-37.701926 10.751979-69.605864a144.899717 144.899717 0 0 1-41.489919-7.125986L427.720165 163.88968a42.957916 42.957916 0 0 0-6.349988 22.477956v3.673993c0.269999-0.004 0.533999-0.04 0.803998-0.04 15.649969 0 29.427943 7.937984 37.557927 20.005961 1.651997 2.451995 4.279992 3.699993 6.951987 3.817992 2.941994 0.13 5.937988-1.117998 7.757984-3.817992 8.985982-13.339974 23.271955-20.001961 37.555927-19.999961v-3.243994z" fill="#FCECA9" p-id="12651"></path><path d="M466.686089 437.765145V210.589589c-1.755997-0.118-3.299994-0.953998-4.267992-2.389996a48.467905 48.467905 0 0 0-40.241922-21.435958c-0.269999 0-0.535999 0.03-0.803998 0.034V445.28113a413.449192 413.449192 0 0 1 45.313912-7.515985z" fill="#FFB332" p-id="12652"></path><path d="M466.686089 320.501374a13.441974 13.441974 0 0 0-8.051985 2.291996c-15.52997 10.43398-27.237947 3.457993-33.093935-2.001997a13.697973 13.697973 0 0 0-4.167992-2.657994v127.145751a414.007191 414.007191 0 0 1 45.313912-7.515985z" fill="#FF9100" p-id="12653"></path><path d="M557.313911 437.841145V210.589589c-0.136 0.01-0.263999 0.046-0.401999 0.046-1.925996 0-3.627993-0.889998-4.669991-2.435996A48.467905 48.467905 0 0 0 512 186.763635c-16.155968 0-31.199939 8.015984-40.241921 21.435958-1.041998 1.545997-2.743995 2.435995-4.669991 2.435996-0.14 0-0.265999-0.036-0.401999-0.046v227.175556a415.909188 415.909188 0 0 1 90.627822 0.076z" fill="#FFDD40" p-id="12654"></path><path d="M557.313911 437.841145v-117.323771a13.059974 13.059974 0 0 0-8.127984 2.873994c-33.451935 26.967947-61.903879 10.805979-74.919853 0.004a12.615975 12.615975 0 0 0-7.581985-2.893994v117.263771a415.927188 415.927188 0 0 1 90.629822 0.076zM602.627823 445.35513V186.799635c-0.269999-0.006-0.533999-0.036-0.803998-0.036-16.157968 0-31.199939 8.015984-40.241922 21.435958-0.967998 1.435997-2.511995 2.271996-4.267992 2.389996V437.841145c15.24597 1.679997 30.375941 4.179992 45.313912 7.513985z" fill="#FFB332" p-id="12655"></path><path d="M602.629823 317.115381a11.999977 11.999977 0 0 0-3.201994 1.917996c-14.987971 12.845975-27.519946 8.697983-34.915932 3.643993a12.559975 12.559975 0 0 0-7.195986-2.157996v117.323771c15.24597 1.679997 30.375941 4.179992 45.313912 7.513985z" fill="#FF9100" p-id="12656"></path><path d="M512 87.491829a148.51971 148.51971 0 0 1-46.471909-7.445985l31.723938-70.355863c5.589989-12.917975 23.907953-12.917975 29.497942 0l31.723938 70.355863A148.54371 148.54371 0 0 1 512 87.491829z" fill="#5F5F9B" p-id="12657"></path><path d="M526.749971 9.689981c-5.589989-12.917975-23.907953-12.917975-29.497942 0l-31.723938 70.355863a148.54971 148.54971 0 0 0 42.311917 7.361985 1655.362767 1655.362767 0 0 1 4.161992-24.617952c5.885989-32.999936 26.343949-27.379947 26.343949-27.379946z" fill="#47477F" p-id="12658"></path><path d="M651.431728 194.41362a16.183968 16.183968 0 0 1 5.923988-22.107957l57.125889-32.981935c7.735985-4.469991 17.635966-1.817996 22.107956 5.923988a16.183968 16.183968 0 0 1-5.923988 22.107957l-57.125889 32.981936c-7.689985 4.441991-17.607966 1.863996-22.107956-5.923989zM287.408439 356.511304a16.183968 16.183968 0 0 1 5.923988-22.107957l57.125889-32.981936a16.183968 16.183968 0 0 1 22.107956 5.923989 16.183968 16.183968 0 0 1-5.923988 22.107957l-57.125889 32.981935c-7.687985 4.441991-17.611966 1.865996-22.107956-5.923988zM748.709538 267.063478h-65.961871c-8.939983 0-16.183968-7.245986-16.183969-16.183968s7.243986-16.183968 16.183969-16.183968h65.961871a16.181968 16.181968 0 0 1 16.183968 16.183968 16.179968 16.179968 0 0 1-16.183968 16.183968zM341.252333 267.063478h-65.963871a16.183968 16.183968 0 0 1 0-32.367936h65.963871a16.181968 16.181968 0 0 1 16.183969 16.183968 16.179968 16.179968 0 0 1-16.183969 16.183968zM714.481605 362.433292l-57.125889-32.981935a16.183968 16.183968 0 1 1 16.183968-28.031946l57.125889 32.981936a16.183968 16.183968 0 0 1 5.923988 22.107957 16.179968 16.179968 0 0 1-22.107956 5.923988zM350.458316 200.335609l-57.125889-32.981936a16.183968 16.183968 0 0 1-5.923988-22.107957 16.179968 16.179968 0 0 1 22.107956-5.923988l57.125889 32.981935a16.183968 16.183968 0 0 1 5.923988 22.107957 16.179968 16.179968 0 0 1-22.107956 5.923989z" fill="#FFDD40" p-id="12659"></path><path d="M309.244396 483.765055c-1.823996 1.015998-3.651993 2.015996-5.467989 3.065994-84.191836 48.607905-144.965717 122.183761-178.415652 205.967598 0.557999 1.465997 116.421773 305.299404 418.969182 330.115355l0.241999 0.022c160.209687-10.515979 299.389415-98.037809 380.899256-225.899559-190.131629-422.743174-616.198796-313.279388-616.226796-313.271388z" fill="#42C3FC" p-id="12660"></path><path d="M813.613411 849.120342l-51.999899-30.665941-67.159868 12.071977s-82.17184 3.927992-62.171879 70.593862c17.193966 57.311888-4.94799 58.693885 29.937942 99.391806 66.68587-21.459958 127.115752-56.829889 177.915652-102.6778z" fill="#8AE1FF" p-id="12661"></path><path d="M544.331937 542.986939s25.001951-26.073949 16.341968-58.049886c-136.833733-30.60394-251.415509-1.177998-251.429509-1.173998-1.823996 1.017998-3.651993 2.017996-5.467989 3.065994-84.191836 48.607905-144.963717 122.183761-178.415652 205.967598 0.501999 1.319997 94.341816 247.277517 333.417349 314.743385v-161.491684s48.167906-46.927908 20.833959-67.593868-8.025984-47.563907-8.025984-47.563908l33.023935-96.537811c-32.497937-60.435882 39.721922-91.365822 39.721923-91.365822z" fill="#1AA9E8" p-id="12662"></path><path d="M533.849957 1005.060037c-7.921985-23.093955-3.397993-48.297906-1.641996-72.649858 1.757997-24.349952-0.471999-51.545899-18.011965-68.531866-14.285972-13.833973-35.531931-17.569966-55.417892-17.829965a213.065584 213.065584 0 0 0-93.015818 20.12196c-10.873979 5.10999-21.501958 11.207978-33.289935 13.531974-11.785977 2.323995-25.39595 0.042-33.061936-9.207982-9.681981-11.683977-6.487987-28.803944-5.531989-43.947914 0.953998-15.14397-4.363991-34.313933-19.387962-36.431929-5.17599-0.729999-10.34998 0.887998-15.51397 1.705996-33.707934 5.34999-66.46187-31.539938-57.157888-64.377874 1.567997-5.539989 4.077992-11.433978 2.015996-16.807967-4.001992-10.42398-18.959963-8.323984-30.011941-6.737987-16.895967 2.421995-34.083933-2.069996-48.473906-11.129978a418.881182 418.881182 0 0 0-26.727948 104.415796C185.622637 933.554177 338.244339 1024 512 1024c10.865979 0 21.639958-0.391999 32.329937-1.087998-4.605991-5.26999-8.267984-11.403978-10.47998-17.851965z" fill="#65D33C" p-id="12663"></path><path d="M925.473192 797.032443c-6.567987-54.031894-23.885953-107.65979-52.817896-157.773692-113.951777-197.369615-365.055287-266.14148-563.4109-155.495696-5.593989 27.333947 2.241996 57.661887 22.165957 77.423849 5.725989 5.675989 12.605975 11.047978 14.595971 18.859963 1.561997 6.131988-0.244 12.543976-1.605997 18.723964l-0.054 0.245999c-2.843994 13.019975 14.109972 20.931959 22.379957 10.47998 16.753967-21.173959 19.059963-56.47589 40.361921-40.029922 34.165933 26.379948 56.937889-1.311997 56.937889-1.311998 10.29398-16.301968 31.267939-21.469958 50.169902-25.27195 19.575962-3.933992 47.899906-2.767995 45.047912 22.819955-0.453999 4.077992-1.933996 7.887985-4.159992 11.249978-6.127988 9.261982-5.20599 21.789957 2.499995 29.781942 6.311988 6.545987 17.239966 10.25398 36.157929 3.409993 31.025939-11.401978 66.223871-11.021978 96.993811 1.051998 4.319992 1.695997 8.781983 3.797993 11.357978 7.661985 3.797993 5.699989 2.329995 13.325974 0.129999 19.811962-14.239972 41.945918-53.273896 76.83785-50.463901 121.045763 1.797996 28.281945 21.031959 52.533897 42.689917 70.805862a239.053533 239.053533 0 0 0 66.22987 39.557923c15.24197 6.015988 32.021937 11.087978 42.241918 23.895953 5.969988 7.479985 8.901983 16.659967 10.743979 26.161949a492.499038 492.499038 0 0 0 111.807781-123.10576z" fill="#A6F987" p-id="12664"></path><path d="M611.635805 443.161134c-98.871807-24.367952-206.761596-12.741975-302.393409 40.603921-5.593989 27.333947 2.241996 57.663887 22.165957 77.423849 5.725989 5.675989 12.605975 11.047978 14.595971 18.859963 1.561997 6.131988-0.244 12.543976-1.605997 18.723964l-0.054 0.245999c-2.843994 13.019975 14.109972 20.931959 22.379957 10.47998 16.753967-21.173959 19.059963-56.47589 40.361921-40.029922 34.165933 26.379948 56.937889-1.311997 56.937889-1.311998 10.29398-16.301968 31.267939-21.469958 50.169902-25.27195 9.507981-1.911996 21.071959-2.607995 30.133941 0.101999s29.947942-31.199939 12.981975-67.199868c-16.713967-35.475931 52.317898-32.713936 54.325893-32.625937zM544.059937 691.924649c-3.737993-0.885998-7.411986-1.955996-10.935978-3.491994-10.23398-4.455991-19.353962-14.969971-16.801967-25.837949 0.677999-2.889994 2.135996-5.583989 2.485995-8.533983 0.555999-4.645991-1.749997-9.225982-4.863991-12.721976-10.38998-11.655977-28.581944-12.945975-43.531915-8.435983-14.949971 4.507991-27.991945 13.675973-42.059918 20.45396-11.315978 5.451989-19.905961 5.16199-30.39594 1.861996-5.28799-1.661997-11.043978-0.949998-15.68397 2.079996-13.439974 10.13398-14.081972 29.891942-11.997976 46.593909 1.241998 9.955981 4.107992 21.357958 13.237974 25.51995 3.423993 1.559997 7.329986 1.845996 10.731979 3.451994 6.861987 3.237994 10.28598 11.031978 16.261968 15.703969 11.611977 9.075982 28.787944 3.895992 41.15392-4.117992 12.367976-8.011984 23.929953-18.809963 38.539925-20.72996 12.467976-1.637997 24.715952 3.587993 36.117929 8.893983 1.049998 0.487999 2.105996 0.979998 3.165994 1.467997 11.691977 5.391989 25.50795-0.307999 30.117941-12.329976 4.829991-12.591975-2.417995-26.717948-15.54197-29.827941z" fill="#89E56A" p-id="12665"></path><path d="M183.956641 623.950781c15.45197-3.587993 25.953949-0.853998 37.965926 6.109988 6.055988 3.511993 13.343974 4.225992 19.899961 1.773997 19.361962-8.769983 25.61595-32.935936 27.667946-54.091894 1.221998-12.609975 0.843998-27.451946-9.253982-35.103932-3.787993-2.869994-8.519983-4.299992-12.269976-7.221986-2.077996-1.617997-3.731993-3.593993-5.17599-5.753988a413.559192 413.559192 0 0 0-87.08983 102.1218c9.405982-2.633995 18.755963-5.627989 28.255945-7.833985z" fill="#65D33C" p-id="12666"></path></svg>
